<?xml version="1.0" standalone="no"?><!DOCTYPE svg PUBLIC "-//W3C//DTD SVG 1.1//EN" "http://www.w3.org/Graphics/SVG/1.1/DTD/svg11.dtd"><svg t="1741587984799" class="icon" viewBox="0 0 1235 1024" version="1.1" xmlns="http://www.w3.org/2000/svg" p-id="13766" xmlns:xlink="http://www.w3.org/1999/xlink" width="241.2109375" height="200"><path d="M931.491045 523.211813a251.093107 251.093107 0 0 0-58.459626-26.636104 178.708391 178.708391 0 0 1-9.657427-3.403093 28.880306 28.880306 0 0 1-6.824582-4.249268c-2.667289-2.078646-3.513464-4.451614-2.556919-7.100509 0.93815-2.648894 1.80272-6.41989 2.556919-11.312986 17.033862-43.449225 17.033862-77.057072 0-100.86033-17.420159-23.04906-46.355651-34.582787-86.880055-34.582787-40.487614 0-87.00882 11.14743-139.618804 33.442291l-3.421489 1.140496c-2.262597 0.754199-4.819516 1.398028-7.652361 1.968276s-5.573715 0.662224-8.22261 0.294321-4.525194-1.710744-5.684085-3.973341-0.93815-6.033593 0.570248-11.331381c17.033862-54.780606 13.262867-94.256489-11.349777-118.427651-28.015736-27.960551-74.665709-29.284998-139.931521-3.973341-65.247418 25.330052-129.887797 69.901378-193.829163 133.750768-48.434297 48.342321-85.794744 97.07094-112.099736 146.185855-26.341782 49.114915-39.457488 95.396986-39.457488 138.827815 0 40.818726 12.287926 78.510284 36.863779 113.056282 24.612643 34.564392 57.061598 63.095191 97.365262 85.574002 40.303663 22.460416 85.794744 40.064527 136.528428 52.70196 50.696894 12.655828 102.755025 18.965348 156.100813 18.965348s104.520955-5.849642 153.5255-17.56732 91.754756-27.371908 128.305819-47.03627c36.495877-19.645966 68.411375-41.812061 95.636122-66.571865 27.261537-24.759804 47.900839-50.623314 61.862719-77.645714 14.017066-27.022401 21.025599-53.382579 21.025599-79.043742 0-24.171161-6.438285-46.20849-19.29646-66.038407-12.839779-19.811522-28.015736-35.189825-45.399105-46.153305zM746.142023 783.079383c-55.406039 44.773672-125.344208 71.501751-209.704133 80.147448-55.258879 5.316184-107.206639 1.324447-155.824888-11.883234-48.655038-13.226076-88.094131-33.810193-118.354069-61.752349-30.278334-27.960551-47.14664-60.078395-50.512943-96.353531-5.316184-55.148508 19.756337-105.091203 75.199166-149.88327 55.44283-44.755277 125.344208-71.483356 209.740924-80.184238 55.258879-5.279394 107.169849-1.306052 155.788097 11.901629 48.655038 13.226076 88.094131 33.810193 118.39086 61.770744 30.278334 27.960551 47.10985 60.078395 50.512943 96.31674 5.279394 55.185298-19.756337 105.127993-75.235957 149.920061zM552.883108 548.192358c-40.101317-10.20928-79.945102-6.603841-119.494565 10.742738-39.549464 17.383369-68.190634 43.651571-85.978695 78.786211-17.788061 35.852049-19.038928 71.28101-3.697415 106.231699 15.304723 34.950689 43.228484 58.845923 83.716097 71.667308 41.996012 13.612374 84.396716 11.349776 127.146928-6.787792 42.787001-18.137568 72.642248-46.484416 89.7129-85.003755 16.997072-37.801929 16.518799-73.764349-1.434818-107.960838-18.008802-34.1597-47.974419-56.730487-89.970432-67.675571z m-60.759013 183.583092c-8.29619 12.858175-20.161029 21.816588-35.465752 26.912031-15.341513 5.095443-29.432159 4.635565-42.290333-1.398028s-21.025599-15.599044-24.428692-28.641169c-3.421488-13.005335-0.93815-25.93709 7.39483-38.795265 7.946683-12.471877 19.296459-21.154364 34.067724-26.084251 14.734475-4.893096 28.567589-4.709145 41.425764 0.570248 13.262867 5.684086 21.779798 15.120772 25.550793 28.346848s1.729139 26.231412-6.254334 39.089586z m53.364184-68.57693c-2.630499 4.929887-6.787792 8.40656-12.471878 10.485206s-11.165825 2.189017-16.463614 0.294322c-11.349776-5.279394-13.833115-13.759534-7.39483-25.514003 2.667289-4.893096 6.714211-8.40656 12.214346-10.448416 5.463345-2.078646 10.889899-2.189017 16.169293-0.331112a16.334848 16.334848 0 0 1 9.951748 10.521997 17.015467 17.015467 0 0 1-2.005065 14.992006z m374.65299-248.499398a33.111179 33.111179 0 0 0 19.296459 16.721145c8.737672 2.648894 17.144233 1.894695 25.256471-2.262597 8.149029-4.157292 13.722744-10.577182 16.739541-19.278064 7.192484-21.135969 8.443351-43.338854 3.697415-66.571865s-15.047191-43.725151-30.940557-61.494818c-15.874971-17.751271-35.024269-30.131173-57.337525-37.12131s-44.847252-8.038658-67.546805-3.127167a31.584386 31.584386 0 0 0-21.025599 14.458548 33.000808 33.000808 0 0 0-4.525194 25.201286c1.545188 9.068784 6.254334 16.058922 14.182621 20.988809 7.946683 4.911492 16.463614 6.41989 25.550793 4.525194 23.858444-4.911492 44.074658 1.710744 60.759014 19.829917 16.62917 18.119173 21.191155 39.107981 13.612373 62.91124-2.648894 8.700882-1.894695 17.107442 2.280993 25.219682z m200.653744-99.149586a261.394363 261.394363 0 0 0-63.84939-126.080012c-32.945623-36.643038-72.292741-62.04667-118.096538-76.229292s-91.938707-16.353243-138.496704-6.511865a37.94909 37.94909 0 0 0-24.686223 16.721145 36.716618 36.716618 0 0 0-5.389764 29.193023c2.262597 10.558787 7.946683 18.781397 17.033862 24.649433a37.765139 37.765139 0 0 0 29.505739 5.371369 195.172005 195.172005 0 0 1 98.229831 4.837911c32.522536 10.006934 60.538272 28.034132 83.992024 54.099988a183.859019 183.859019 0 0 1 45.417501 89.528949c6.824582 34.012539 4.929887 66.498284-5.684086 97.475632a38.225017 38.225017 0 0 0 2.832845 29.487344c4.929887 9.436686 12.508668 15.856576 22.699553 19.259669s20.050658 2.648894 29.524134-2.262597a38.390573 38.390573 0 0 0 19.29646-22.662763c14.78966-43.46762 17.346579-89.105862 7.670756-136.877934z" fill="#FFFFFF" p-id="13767"></path></svg>