<?xml version="1.0" encoding="UTF-8"?>
<svg width="100%" height="100%" viewBox="0 0 200 200" version="1.1" xmlns="http://www.w3.org/2000/svg">
    <defs>
        <linearGradient id="electronicGradient" x1="0%" y1="0%" x2="100%" y2="100%">
            <stop offset="0%" style="stop-color:#00C6FF;stop-opacity:1" />
            <stop offset="100%" style="stop-color:#0072FF;stop-opacity:1" />
        </linearGradient>
    </defs>
    <rect width="200" height="200" fill="url(#electronicGradient)"/>
    <g transform="translate(50, 40)">
        <path d="M50,0 L90,40 L50,80 L10,40 L50,0 Z" fill="#FFFFFF" fill-opacity="0.2"/>
        <circle cx="50" cy="40" r="25" fill="#FFFFFF" fill-opacity="0.3"/>
        <path d="M50,25 C58.2843,25 65,31.7157 65,40 C65,48.2843 58.2843,55 50,55 C41.7157,55 35,48.2843 35,40 C35,31.7157 41.7157,25 50,25 Z" fill="#FFFFFF"/>
        <path d="M50,30 C55.5228,30 60,34.4772 60,40 C60,45.5228 55.5228,50 50,50 C44.4772,50 40,45.5228 40,40 C40,34.4772 44.4772,30 50,30 Z" fill="url(#electronicGradient)"/>
        <path d="M30,90 L50,70 L70,90 L50,110 L30,90 Z" fill="#FFFFFF" fill-opacity="0.4"/>
        <path d="M40,90 L50,80 L60,90 L50,100 L40,90 Z" fill="#FFFFFF"/>
    </g>
    <text x="100" y="170" font-family="Arial, sans-serif" font-size="16" font-weight="bold" fill="white" text-anchor="middle">电子音乐</text>
</svg> 