<?xml version="1.0" encoding="UTF-8"?>
<svg width="100%" height="100%" viewBox="0 0 200 200" version="1.1" xmlns="http://www.w3.org/2000/svg">
    <defs>
        <linearGradient id="folkGradient" x1="0%" y1="0%" x2="100%" y2="100%">
            <stop offset="0%" style="stop-color:#FF9500;stop-opacity:1" />
            <stop offset="100%" style="stop-color:#FF5E3A;stop-opacity:1" />
        </linearGradient>
    </defs>
    <rect width="200" height="200" fill="url(#folkGradient)"/>
    <g transform="translate(50, 40)">
        <rect x="10" y="10" width="80" height="100" rx="10" fill="#FFFFFF" fill-opacity="0.2"/>
        <rect x="20" y="20" width="60" height="80" rx="5" fill="#FFFFFF" fill-opacity="0.3"/>
        <path d="M30,30 L70,30 L70,90 L30,90 L30,30 Z" fill="#FFFFFF"/>
        <path d="M40,40 L60,40 L60,80 L40,80 L40,40 Z" fill="url(#folkGradient)"/>
        <path d="M35,50 L45,50 L45,70 L35,70 L35,50 Z" fill="#FFFFFF" fill-opacity="0.5"/>
        <path d="M55,50 L65,50 L65,70 L55,70 L55,50 Z" fill="#FFFFFF" fill-opacity="0.5"/>
    </g>
    <text x="100" y="170" font-family="Arial, sans-serif" font-size="16" font-weight="bold" fill="white" text-anchor="middle">民谣音乐</text>
</svg> 