<?xml version="1.0" encoding="UTF-8"?>
<svg width="100%" height="100%" viewBox="0 0 200 200" version="1.1" xmlns="http://www.w3.org/2000/svg">
    <defs>
        <linearGradient id="rockGradient" x1="0%" y1="0%" x2="100%" y2="100%">
            <stop offset="0%" style="stop-color:#333333;stop-opacity:1" />
            <stop offset="100%" style="stop-color:#666666;stop-opacity:1" />
        </linearGradient>
    </defs>
    <rect width="200" height="200" fill="url(#rockGradient)"/>
    <g transform="translate(50, 40)">
        <path d="M50,0 L100,30 L100,90 L50,120 L0,90 L0,30 L50,0 Z" fill="#FFFFFF" fill-opacity="0.2"/>
        <path d="M50,20 L85,40 L85,80 L50,100 L15,80 L15,40 L50,20 Z" fill="#FFFFFF" fill-opacity="0.3"/>
        <path d="M30,50 L50,30 L70,50 L50,70 L30,50 Z" fill="#FFFFFF"/>
        <path d="M40,70 L50,60 L60,70 L50,80 L40,70 Z" fill="#FFFFFF"/>
        <path d="M20,40 L30,30 L40,40 L30,50 L20,40 Z" fill="#FFFFFF"/>
        <path d="M60,40 L70,30 L80,40 L70,50 L60,40 Z" fill="#FFFFFF"/>
    </g>
    <text x="100" y="170" font-family="Arial, sans-serif" font-size="16" font-weight="bold" fill="white" text-anchor="middle">摇滚音乐</text>
</svg> 