<?xml version="1.0" encoding="UTF-8"?>
<svg width="60px" height="60px" viewBox="0 0 60 60" version="1.1" xmlns="http://www.w3.org/2000/svg">
    <g stroke="none" stroke-width="1" fill="none" fill-rule="evenodd">
        <circle fill="#FF4E8A" cx="30" cy="30" r="30"></circle>
        <path d="M30,15 C36.0751322,15 41,19.9248678 41,26 L41,26 L41,38 C41,40.7614237 38.7614237,43 36,43 L36,43 L24,43 C21.2385763,43 19,40.7614237 19,38 L19,38 L19,26 C19,19.9248678 23.9248678,15 30,15 Z M30,19 C26.1340068,19 23,22.1340068 23,26 L23,26 L23,38 C23,38.5522847 23.4477153,39 24,39 L24,39 L36,39 C36.5522847,39 37,38.5522847 37,38 L37,38 L37,26 C37,22.1340068 33.8659932,19 30,19 Z M30,23 C31.6568542,23 33,24.3431458 33,26 C33,27.6568542 31.6568542,29 30,29 C28.3431458,29 27,27.6568542 27,26 C27,24.3431458 28.3431458,23 30,23 Z M33,31 C34.1045695,31 35,31.8954305 35,33 L35,33 L35,35 C35,36.1045695 34.1045695,37 33,37 L33,37 L27,37 C25.8954305,37 25,36.1045695 25,35 L25,35 L25,33 C25,31.8954305 25.8954305,31 27,31 L27,31 Z" fill="#FFFFFF" fill-rule="nonzero"></path>
    </g>
</svg> 