<?xml version="1.0" encoding="UTF-8"?>
<svg width="100%" height="100%" viewBox="0 0 200 200" version="1.1" xmlns="http://www.w3.org/2000/svg">
    <rect width="200" height="200" fill="#FF9500"/>
    <path d="M70,60 L130,60 C135.522847,60 140,64.4771525 140,70 L140,130 C140,135.522847 135.522847,140 130,140 L70,140 C64.4771525,140 60,135.522847 60,130 L60,70 C60,64.4771525 64.4771525,60 70,60 Z" fill="#FFFFFF" fill-opacity="0.2"/>
    <path d="M100,80 C111.045695,80 120,88.954305 120,100 C120,111.045695 111.045695,120 100,120 C88.954305,120 80,111.045695 80,100 C80,88.954305 88.954305,80 100,80 Z" fill="#FFFFFF"/>
    <path d="M100,90 C105.522847,90 110,94.4771525 110,100 C110,105.522847 105.522847,110 100,110 C94.4771525,110 90,105.522847 90,100 C90,94.4771525 94.4771525,90 100,90 Z" fill="#FF9500"/>
</svg> 