<svg xmlns="http://www.w3.org/2000/svg" viewBox="0 0 400 200" width="400" height="200">
  <defs>
    <linearGradient id="bg-gradient" x1="0%" y1="0%" x2="100%" y2="100%">
      <stop offset="0%" stop-color="#f6f6f6" />
      <stop offset="100%" stop-color="#e9e9e9" />
    </linearGradient>
  </defs>
  <rect width="400" height="200" fill="url(#bg-gradient)" />
  
  <!-- Logo -->
  <circle cx="200" cy="50" r="30" fill="#ff4e8a" />
  <path d="M190 35 Q 210 35 210 55 L 210 75 Q 210 80 205 80 Q 200 80 200 75 L 200 60 Q 200 55 195 55 Q 190 55 190 60 L 190 80 Q 190 85 185 85 Q 180 85 180 80 L 180 35 Z" fill="white" />
  <circle cx="180" cy="35" r="5" fill="white" />
  <circle cx="200" cy="55" r="5" fill="white" />
  
  <!-- Form Fields -->
  <rect x="100" y="100" width="200" height="30" rx="15" ry="15" fill="white" stroke="#ddd" stroke-width="1" />
  <text x="120" y="120" font-family="Arial" font-size="12" fill="#999">手机号码</text>
  
  <rect x="100" y="140" width="200" height="30" rx="15" ry="15" fill="white" stroke="#ddd" stroke-width="1" />
  <text x="120" y="160" font-family="Arial" font-size="12" fill="#999">验证码</text>
</svg> 